<mxfile host="app.diagrams.net" modified="2024-01-24T19:38:50.354Z" agent="Mozilla/5.0 (Windows NT 10.0; Win64; x64) AppleWebKit/537.36 (KHTML, like Gecko) Chrome/120.0.0.0 Safari/537.36" etag="S-hfSBqSktX2UqqxY5dd" version="23.0.1" type="github">
  <diagram name="Page-1" id="34lF3tprQEqtBlpWo-_l">
    <mxGraphModel dx="1290" dy="557" grid="1" gridSize="10" guides="1" tooltips="1" connect="1" arrows="1" fold="1" page="1" pageScale="1" pageWidth="850" pageHeight="1100" math="0" shadow="0">
      <root>
        <mxCell id="0" />
        <mxCell id="1" parent="0" />
        <mxCell id="DDSXZfYehCE9cMWMDsmP-1" value="" style="rounded=0;whiteSpace=wrap;html=1;" vertex="1" parent="1">
          <mxGeometry x="40" y="150" width="230" height="180" as="geometry" />
        </mxCell>
        <mxCell id="DDSXZfYehCE9cMWMDsmP-2" value="&lt;span style=&quot;font-size: 14px;&quot;&gt;Journal&lt;/span&gt;" style="rounded=0;whiteSpace=wrap;html=1;" vertex="1" parent="1">
          <mxGeometry x="40" y="150" width="230" height="50" as="geometry" />
        </mxCell>
        <mxCell id="DDSXZfYehCE9cMWMDsmP-23" style="edgeStyle=orthogonalEdgeStyle;rounded=0;orthogonalLoop=1;jettySize=auto;html=1;exitX=1;exitY=0.5;exitDx=0;exitDy=0;entryX=0;entryY=0.5;entryDx=0;entryDy=0;" edge="1" parent="1" source="DDSXZfYehCE9cMWMDsmP-4" target="DDSXZfYehCE9cMWMDsmP-15">
          <mxGeometry relative="1" as="geometry" />
        </mxCell>
        <mxCell id="DDSXZfYehCE9cMWMDsmP-4" value="&lt;div style=&quot;&quot;&gt;_entries : list &amp;lt;entry&amp;gt;&lt;/div&gt;&lt;div style=&quot;&quot;&gt;_fileName: string&lt;/div&gt;" style="rounded=0;whiteSpace=wrap;html=1;align=left;" vertex="1" parent="1">
          <mxGeometry x="40" y="200" width="230" height="60" as="geometry" />
        </mxCell>
        <mxCell id="DDSXZfYehCE9cMWMDsmP-5" value="Display(Menu);&amp;nbsp;&lt;br&gt;AddEntry();&amp;nbsp;&lt;br&gt;Save();&lt;br&gt;Load();&lt;br&gt;Display(Entries);&amp;nbsp;" style="rounded=0;whiteSpace=wrap;html=1;align=left;" vertex="1" parent="1">
          <mxGeometry x="40" y="260" width="230" height="70" as="geometry" />
        </mxCell>
        <mxCell id="DDSXZfYehCE9cMWMDsmP-13" value="" style="rounded=0;whiteSpace=wrap;html=1;" vertex="1" parent="1">
          <mxGeometry x="370" y="160" width="230" height="180" as="geometry" />
        </mxCell>
        <mxCell id="DDSXZfYehCE9cMWMDsmP-14" value="&lt;span style=&quot;font-size: 14px;&quot;&gt;Entry:&lt;/span&gt;" style="rounded=0;whiteSpace=wrap;html=1;" vertex="1" parent="1">
          <mxGeometry x="370" y="160" width="230" height="50" as="geometry" />
        </mxCell>
        <mxCell id="DDSXZfYehCE9cMWMDsmP-15" value="&lt;div style=&quot;&quot;&gt;_userEntry : string&lt;br&gt;&lt;/div&gt;&lt;div style=&quot;&quot;&gt;_date : string&lt;/div&gt;&lt;div style=&quot;&quot;&gt;_response: string&lt;/div&gt;&lt;div style=&quot;&quot;&gt;_prompt : string&lt;/div&gt;" style="rounded=0;whiteSpace=wrap;html=1;align=left;" vertex="1" parent="1">
          <mxGeometry x="370" y="210" width="230" height="60" as="geometry" />
        </mxCell>
        <mxCell id="DDSXZfYehCE9cMWMDsmP-24" style="edgeStyle=orthogonalEdgeStyle;rounded=0;orthogonalLoop=1;jettySize=auto;html=1;exitX=0;exitY=0.5;exitDx=0;exitDy=0;entryX=1;entryY=0.5;entryDx=0;entryDy=0;" edge="1" parent="1" source="DDSXZfYehCE9cMWMDsmP-16" target="DDSXZfYehCE9cMWMDsmP-5">
          <mxGeometry relative="1" as="geometry" />
        </mxCell>
        <mxCell id="DDSXZfYehCE9cMWMDsmP-16" value="GetResponse()&lt;br&gt;Display()" style="rounded=0;whiteSpace=wrap;html=1;align=left;" vertex="1" parent="1">
          <mxGeometry x="370" y="270" width="230" height="70" as="geometry" />
        </mxCell>
        <mxCell id="DDSXZfYehCE9cMWMDsmP-18" value="" style="rounded=0;whiteSpace=wrap;html=1;" vertex="1" parent="1">
          <mxGeometry x="510" y="390" width="230" height="180" as="geometry" />
        </mxCell>
        <mxCell id="DDSXZfYehCE9cMWMDsmP-19" value="&lt;span style=&quot;font-size: 14px;&quot;&gt;Prompt&lt;/span&gt;" style="rounded=0;whiteSpace=wrap;html=1;" vertex="1" parent="1">
          <mxGeometry x="510" y="390" width="230" height="50" as="geometry" />
        </mxCell>
        <mxCell id="DDSXZfYehCE9cMWMDsmP-27" style="edgeStyle=orthogonalEdgeStyle;rounded=0;orthogonalLoop=1;jettySize=auto;html=1;exitX=1;exitY=0.25;exitDx=0;exitDy=0;entryX=1;entryY=0.5;entryDx=0;entryDy=0;" edge="1" parent="1" source="DDSXZfYehCE9cMWMDsmP-20" target="DDSXZfYehCE9cMWMDsmP-15">
          <mxGeometry relative="1" as="geometry" />
        </mxCell>
        <mxCell id="DDSXZfYehCE9cMWMDsmP-20" value="&lt;div style=&quot;&quot;&gt;_prompts : list &amp;lt;string&amp;gt;&lt;/div&gt;&lt;div style=&quot;&quot;&gt;&lt;br&gt;&lt;/div&gt;" style="rounded=0;whiteSpace=wrap;html=1;align=left;" vertex="1" parent="1">
          <mxGeometry x="510" y="440" width="230" height="60" as="geometry" />
        </mxCell>
        <mxCell id="DDSXZfYehCE9cMWMDsmP-21" value="GeneratePrompt()" style="rounded=0;whiteSpace=wrap;html=1;align=left;" vertex="1" parent="1">
          <mxGeometry x="510" y="500" width="230" height="70" as="geometry" />
        </mxCell>
      </root>
    </mxGraphModel>
  </diagram>
</mxfile>
